<?xml version="1.0" encoding="UTF-8"?>
<svg width="150px" height="33px" viewBox="0 0 150 33" version="1.1" xmlns="http://www.w3.org/2000/svg" xmlns:xlink="http://www.w3.org/1999/xlink">
    <title>Slice 1</title>
    <g id="Page-1" stroke="none" stroke-width="1" fill="none" fill-rule="evenodd">
        <g id="cashapp">
            <path d="M60.203009,12.7778372 C59.9291447,12.9426379 59.5738351,12.8731228 59.3835071,12.6175045 C58.4665147,11.3112007 56.9475043,10.5518207 55.3438356,10.5980018 C52.2660372,10.5980018 50.3769072,13.0145137 50.3769072,16.4657045 C50.3769072,19.9168953 52.3006533,22.3793858 55.3784518,22.3793858 C57.0048272,22.417903 58.5356883,21.6193554 59.4258278,20.2681413 C59.6072525,20.0090692 59.9584388,19.931099 60.2338272,20.0887496 L61.6958438,20.9286388 C61.8574066,21.0099122 61.97533,21.1569271 62.0188995,21.3313917 C62.062469,21.5058563 62.0273712,21.6904987 61.9227478,21.8372266 C60.4698748,23.9981369 57.9991903,25.265772 55.3823583,25.1929069 C50.4615486,25.1929069 47.1259196,21.6502974 47.1259196,16.4849789 C47.1259196,11.3196604 50.4615486,7.82249102 55.3092195,7.82249102 C57.8795102,7.75169591 60.3179421,8.95007894 61.8188993,11.0217151 C61.9217167,11.1605613 61.9618693,11.3355146 61.9297802,11.5048469 C61.8976912,11.6741792 61.7962374,11.8227098 61.6496166,11.9150126 L60.203009,12.7778372 Z" id="Path" fill="#000000" fill-rule="nonzero"></path>
            <path d="M70.9601658,23.555123 L70.9601658,24.2575073 C70.960098,24.4242226 71.0286659,24.5837299 71.1499806,24.6990674 C71.2712953,24.8144049 71.4348267,24.8755613 71.6026805,24.8683652 L73.2108662,24.8683652 C73.3741343,24.8683652 73.5307154,24.8040071 73.6461633,24.689449 C73.7616113,24.574891 73.8264693,24.4195169 73.8264693,24.2575073 L73.8264693,16.27856 C73.8264693,13.3885874 71.7566626,12.1936835 68.8249248,12.1936835 C67.1770196,12.1974577 65.5550552,12.6011355 64.1004179,13.3695284 C63.8118693,13.5289777 63.7001547,13.8850352 63.8464939,14.178837 L64.3735491,15.270693 C64.4466399,15.4187974 64.5776407,15.5307585 64.7360802,15.5805338 C64.8945197,15.630309 65.0665869,15.6135595 65.2122581,15.5341813 C66.2508781,14.9986108 67.4006757,14.7097647 68.5710007,14.6904157 C69.5906035,14.6904157 70.7947896,14.969302 70.7947896,16.0037655 C70.7947896,17.0859304 69.4774228,17.2704907 67.8520918,17.4981222 C67.7210801,17.516401 67.5901028,17.5349216 67.4591605,17.5536841 C65.7817425,17.7865918 63.0616081,18.3058156 63.0616081,21.3331854 C63.0616081,23.7650953 64.8352785,25.1509125 67.3899283,25.1509125 C69.1173715,25.1509125 70.1907975,24.5400546 70.9601658,23.555123 Z M68.43883,19.4407428 C69.4103608,19.2714728 70.291499,19.1181392 70.7947896,18.7410505 L70.7947896,20.1613246 C70.7947896,22.0166183 69.4482324,22.8145131 68.0054228,22.8145131 C66.8435575,22.8145131 66.0394646,22.299058 66.0394646,21.1957882 C66.0394646,19.9970079 66.962815,19.7030466 68.0747636,19.5045959 C68.1970595,19.4827372 68.3185959,19.4615247 68.43883,19.4406351 L68.43883,19.4407428 Z" id="Shape" fill="#000000"></path>
            <path d="M76.4695584,21.7073668 C76.6852207,21.4582049 77.0608142,21.4228186 77.3198785,21.6272543 C78.3485052,22.3980436 79.6092877,22.8015955 80.897929,22.7725186 C82.2251706,22.7725186 83.2062507,22.3488053 83.2062507,21.3180028 C83.2062507,20.3788344 82.3060139,20.1917975 80.1284523,19.8138474 C77.8200221,19.4320209 75.6116423,18.6684754 75.6116423,16.0572815 C75.6116423,13.3351791 77.9778023,12.1862537 80.6747146,12.1862537 C82.3659589,12.1613822 84.0169388,12.6988874 85.3646053,13.7131292 C85.4975089,13.8163896 85.5818331,13.969288 85.5978365,14.1360292 C85.61384,14.3027705 85.5601177,14.4687148 85.4492467,14.5950129 L84.6797699,15.4921868 C84.4679787,15.7420456 84.096277,15.7839889 83.8333564,15.5876973 C82.8852491,14.8995368 81.7377493,14.5351492 80.5631616,14.5492497 C79.4282079,14.5492497 78.4356252,14.8776679 78.4356252,15.767089 C78.4356252,16.755897 79.828301,16.9429339 81.2248834,17.1796103 C84.2065379,17.6950654 86.0994659,18.5387233 86.0994659,20.9973374 C86.0994659,23.5780585 84.0180481,25.1738479 80.7132373,25.1738479 C78.9069615,25.2286582 77.1380502,24.6561589 75.7116927,23.555123 C75.582444,23.450108 75.501094,23.2979999 75.4858947,23.132926 C75.4706953,22.9678521 75.5229193,22.8036339 75.6308494,22.6771158 L76.4695584,21.7073668 Z M87.9269122,24.2575073 L87.9269122,8.71955728 C87.9269122,8.5575576 87.9917646,8.40218324 88.1071954,8.28762207 C88.2226261,8.1730609 88.379196,8.10869941 88.5424542,8.10869941 L90.3161246,8.10869941 C90.6561007,8.10869941 90.9317277,8.38220179 90.9317277,8.71955728 L90.9317277,14.0261495 C91.8277192,12.8397133 93.2469294,12.1568827 94.7405887,12.1935759 C97.3644707,12.1935759 98.9033157,14.0489772 98.9033157,16.6985046 L98.9033157,24.2575073 C98.9033157,24.419507 98.8385106,24.5748813 98.7230799,24.6894425 C98.6076491,24.8040037 98.4510792,24.8683652 98.2878211,24.8683652 L96.5141507,24.8683652 C96.1741625,24.8683652 95.8985476,24.5948748 95.8985476,24.2575073 L95.8985476,17.3857062 C95.8985476,16.0685877 95.4715428,14.8736838 93.7710111,14.8736838 C92.1590274,14.8736838 90.9317277,15.9999967 90.9317277,17.8781182 L90.9317277,24.261276 C90.9317277,24.5986435 90.6561128,24.8721452 90.3161246,24.8721452 L88.5424542,24.8721452 C88.37823,24.8731292 88.2204977,24.8085678 88.1047395,24.6929728 C87.9889812,24.5773778 87.9249175,24.420456 87.9269122,24.2575073 L87.9269122,24.2575073 Z" id="Shape" fill="#000000" fill-rule="nonzero"></path>
            <path d="M117.143962,20.7146824 L118.421178,24.4560657 C118.500169,24.7056471 118.730574,24.8775946 118.994135,24.8836612 L121.191555,24.8836612 C121.392842,24.8845192 121.581776,24.7874413 121.697233,24.6238282 C121.813439,24.4603436 121.84142,24.25069 121.772108,24.0628253 L115.981771,8.52487527 C115.890791,8.28468677 115.659803,8.12518428 115.401218,8.12394704 L112.558137,8.12394704 C112.304787,8.1210268 112.075566,8.27263425 111.980839,8.50581625 L106.167172,24.047535 C106.09818,24.2347098 106.125529,24.4435111 106.240446,24.6069675 C106.355363,24.7704239 106.543403,24.8679874 106.744252,24.8683652 L108.825236,24.8683652 C109.088256,24.8692283 109.322419,24.7032395 109.406874,24.4560657 L110.687346,20.7146824 L117.143962,20.7146824 Z M111.465395,18.1072572 L113.950378,10.8308018 L116.339869,18.1072572 L111.465395,18.1072572 Z M126.230971,14.0490849 L126.230971,13.0869811 C126.239821,12.919676 126.178552,12.7561876 126.061688,12.6352714 C125.945488,12.5141074 125.784253,12.445595 125.615694,12.445758 L123.84148,12.445758 C123.50183,12.445758 123.226203,12.7192603 123.226203,13.0565082 L123.226203,28.3272011 C123.226203,28.6645566 123.50183,28.938059 123.84148,28.938059 L125.615694,28.938059 C125.955344,28.938059 126.230971,28.6645566 126.230971,28.3272011 L126.230971,23.2611618 C127.11284,24.4904981 128.559287,25.1965304 130.078897,25.1393909 C133.482999,25.1393909 135.683674,22.3106872 135.683674,18.6494164 C135.683674,14.988361 133.482999,12.1936835 130.078897,12.1936835 C128.563882,12.1328442 127.118983,12.8295482 126.230971,14.0490849 L126.230971,14.0490849 Z M132.524815,18.6494164 C132.524815,20.7835964 131.528652,22.5473637 129.447343,22.5473637 C127.328053,22.5473637 126.230971,20.7872574 126.230971,18.6494164 C126.230971,16.5114677 127.385566,14.79734 129.447343,14.79734 C131.509119,14.79734 132.524815,16.5153441 132.524815,18.6494164 Z M140.542956,14.0489772 L140.542956,13.0868734 C140.552632,12.9194603 140.492155,12.7555219 140.375844,12.6338716 C140.259047,12.5124166 140.096857,12.4442608 139.927679,12.4455426 L138.153466,12.4455426 C137.813622,12.4456615 137.538188,12.7190689 137.538188,13.0562928 L137.538188,28.3272011 C137.538188,28.6644489 137.813815,28.9378436 138.153466,28.9378436 L139.927679,28.9378436 C140.267329,28.9378436 140.542956,28.6644489 140.542956,28.3270934 L140.542956,23.2609465 C141.425879,24.4890643 142.871599,25.194782 144.390882,25.1392833 C147.799325,25.1392833 150,22.3103642 150,18.6492011 C150,14.9881456 147.799325,12.1935759 144.390882,12.1935759 C142.876142,12.134045 141.431835,12.8304643 140.542956,14.0489772 Z M146.841141,18.6492011 C146.841141,20.783381 145.844978,22.5471483 143.763668,22.5471483 C141.65523,22.5471483 140.542956,20.7871498 140.542956,18.6492011 C140.542956,16.51136 141.700807,14.7972323 143.763668,14.7972323 C145.825445,14.7972323 146.841141,16.5151288 146.841141,18.6492011 Z" id="Shape" fill="#000000"></path>
            <path d="M21.652778,0 C25.0077226,0 26.6582291,0 28.4703137,0.564986997 C30.4390304,1.27241528 31.9894578,2.81089156 32.7023815,4.76443294 C33.2717573,6.54736694 33.2717573,8.20044115 33.2717573,11.514127 L33.2717573,21.485873 C33.2717573,24.7958978 33.2717573,26.4488643 32.7023815,28.2355671 C31.9894187,30.1890838 30.4390056,31.7275459 28.4703137,32.435013 C26.6735296,33 25.0077226,33 21.6681871,33 L11.5881612,33 C8.25253219,33 6.5867252,33 4.78603461,32.435013 C2.81731786,31.7275847 1.2668905,30.1891084 0.553966822,28.2355671 C0,26.4526331 0,24.8148491 0,21.485873 L0,11.4989444 C0,8.1889196 0,6.53606074 0.569375889,4.74914265 C1.2822735,2.79558482 2.83271035,1.25709912 4.80144368,0.549696707 C6.58281867,0 8.25253219,0 11.5882697,0 L21.652778,0 Z" id="Path" fill="#00D54B"></path>
            <path d="M17.4669374,10.8156192 C19.1013552,10.8181197 20.6822075,11.3941786 21.9298157,12.4418816 C22.1972718,12.6823957 22.6073938,12.6740344 22.8646686,12.4228225 L24.149698,11.1439297 C24.2800104,11.0156878 24.3503846,10.8392426 24.3438106,10.6572427 C24.3372365,10.4752428 24.2543125,10.3042499 24.1150819,10.1855946 C23.10584,9.33371341 21.9388196,8.68537172 20.6794024,8.27689261 L21.064195,6.3946794 C21.1046134,6.19879591 21.0540064,5.99526502 20.9264053,5.84051719 C20.7988041,5.68576936 20.607771,5.59625207 20.4062713,5.5967823 L17.9324649,5.5967823 C17.6166715,5.59648322 17.3430944,5.81399819 17.2745411,6.11988488 L16.9282712,7.80343199 C13.6349628,7.96387237 10.8417981,9.58248958 10.8417981,12.9000519 C10.8417981,15.767089 13.1502283,17.0002186 15.5894185,17.8630432 C17.8977402,18.7143463 19.1212419,19.0313506 19.1212419,20.2300233 C19.1212419,21.4286959 17.9016467,22.1845962 16.1049712,22.1845962 C14.3613737,22.2122666 12.6767848,21.5582297 11.4150805,20.3637595 C11.1545886,20.1095642 10.7368129,20.1095642 10.476321,20.3637595 L9.09894574,21.6997217 C8.96892272,21.8241816 8.89547749,21.9957458 8.89547749,22.1750128 C8.89547749,22.3542798 8.96892272,22.525844 9.09894574,22.6503039 C10.2211839,23.6933459 11.5909273,24.4379623 13.0808875,24.8149568 L12.6962034,26.5596651 C12.6550144,26.7569874 12.7042184,26.9622719 12.8305236,27.1200647 C12.9568289,27.2778574 13.1472033,27.3718773 13.3502206,27.3767364 L15.8317315,27.3767364 C16.1501188,27.3784302 16.4262045,27.1586443 16.4935618,26.8498576 L16.8513343,25.1967834 C20.7986599,24.9562305 23.2109386,22.84897 23.2109386,19.7642078 C23.2109386,16.9238748 20.8063645,15.7252022 17.8862377,14.7478081 C16.2165242,14.1255364 14.7737146,13.7170056 14.7737146,12.4877524 C14.7737146,11.2584992 16.1202717,10.8156192 17.4669374,10.8156192 Z" id="Path" fill="#FFFFFF" fill-rule="nonzero"></path>
        </g>
    </g>
</svg>