<?xml version="1.0" encoding="UTF-8"?>
<svg width="153px" height="41px" viewBox="0 0 153 41" version="1.1" xmlns="http://www.w3.org/2000/svg" xmlns:xlink="http://www.w3.org/1999/xlink">
    <title>paypal</title>
    <g id="Page-1" stroke="none" stroke-width="1" fill="none" fill-rule="evenodd">
        <g id="paypal" transform="translate(0.7652, 0.4)" fill-rule="nonzero">
            <path d="M25.705668,1.97414806 C23.7871546,0.705052879 21.3071251,0.0470035253 18.2655795,0.0470035253 L6.38015518,0.0470035253 C5.444295,0.0470035253 4.9295719,0.517038778 4.83598588,1.45710928 L0.0163059238,31.3043478 C-0.0304870854,31.586369 0.0163059238,31.8683901 0.25027097,32.1034078 C0.437443007,32.3384254 0.718201063,32.479436 0.998959118,32.479436 L6.66091324,32.479436 C7.64356643,32.479436 8.20508254,32.0094007 8.29866856,31.0693302 L9.65566583,23.0317274 C9.70245884,22.6556992 9.88963088,22.3266745 10.1703889,22.0916569 C10.451147,21.8566392 10.8254911,21.6686251 11.2934212,21.6216216 C11.7613512,21.5276146 12.1356953,21.5276146 12.5568324,21.5276146 C12.9779695,21.5276146 13.3991066,21.5276146 13.9606227,21.6216216 C14.5221388,21.6686251 14.8496899,21.7156287 14.9900689,21.7156287 C19.2482327,21.7156287 22.5705364,20.5405405 25.0037729,18.1903643 C27.4370094,15.840188 28.6536276,12.5499412 28.6536276,8.3666275 C28.6536276,4.18331375 27.7177674,3.38425382 25.799254,2.11515864 L25.799254,2.11515864 L25.705668,1.97414806 Z M19.5757838,10.9518214 C19.3418187,12.6439483 18.6867166,13.7720329 17.6572704,14.3360752 C16.6278242,14.853114 15.1304479,15.1351351 13.2119345,15.1351351 L10.7786981,15.2291422 L12.0421093,7.37955347 C12.1356953,6.86251469 12.4632464,6.58049354 13.0247625,6.58049354 L14.4285528,6.58049354 C16.3938592,6.58049354 17.8444425,6.86251469 18.7335096,7.42655699 C19.6225768,7.99059929 19.9033349,9.16568743 19.6225768,10.9988249 L19.6225768,10.9988249 L19.5757838,10.9518214 Z" id="Shape" fill="#003087"></path>
            <path d="M151.06414,0.0470035253 L145.589358,0.0470035253 C145.027842,0.0470035253 144.700291,0.329024677 144.606705,0.846063455 L139.787025,31.3043478 L139.693439,31.4453584 C139.693439,31.680376 139.787025,31.9153937 139.974197,32.1504113 C140.161369,32.3854289 140.442127,32.479436 140.722885,32.479436 L145.636151,32.479436 C146.572011,32.479436 147.086734,32.0094007 147.18032,31.0693302 L152,1.12808461 L152,1.03407756 C152,0.329024677 151.672449,0 151.017347,0 L151.017347,0 L151.06414,0.0470035253 Z" id="Path" fill="#009CDE"></path>
            <path d="M84.7116527,11.8448884 C84.7116527,11.6098707 84.6180667,11.3748531 84.4308946,11.1398355 C84.2437226,10.9048179 84.0097575,10.8108108 83.7757925,10.8108108 L78.0670454,10.8108108 C77.5055293,10.8108108 77.0843922,11.0458284 76.7100481,11.5628672 L68.8488225,22.9847239 L65.5733119,11.9858989 C65.3393469,11.186839 64.7778307,10.8108108 63.9355566,10.8108108 L58.3671885,10.8108108 C58.1332234,10.8108108 57.8992584,10.9048179 57.7120863,11.1398355 C57.5249143,11.3748531 57.4313283,11.6098707 57.4313283,11.8448884 C57.4313283,12.079906 57.8992584,13.3960047 58.8819116,16.1692127 C59.8645648,18.9424207 60.894011,21.9506463 62.0170432,25.146886 C63.1400754,28.3431257 63.7015915,30.0822562 63.7483845,30.2702703 C59.6773927,35.7226792 57.6652933,38.6839013 57.6652933,39.0599295 C57.6652933,39.7179788 57.9928444,40 58.6479465,40 L64.3566937,40 C64.9182098,40 65.3393469,39.7649824 65.7136909,39.2479436 L84.6648597,12.3149236 C84.7584457,12.2209166 84.8052387,12.0329025 84.8052387,11.7978848 L84.8052387,11.7978848 L84.7116527,11.8448884 Z" id="Path" fill="#003087"></path>
            <path d="M137.915304,10.8108108 L132.25335,10.8108108 C131.551455,10.8108108 131.130318,11.6098707 130.989939,13.2079906 C129.679735,11.2808461 127.340084,10.293772 123.924194,10.293772 C120.508305,10.293772 117.32638,11.6098707 114.846351,14.2420682 C112.366321,16.8742656 111.10291,19.9764982 111.10291,23.5487662 C111.10291,27.1210341 111.945184,28.7191539 113.676525,30.4112808 C115.361074,32.1034078 117.653931,32.9494712 120.555098,32.9494712 C123.456264,32.9494712 123.456264,32.6674501 124.953641,32.0564042 C126.451017,31.4923619 127.620842,30.693302 128.463116,29.706228 C128.463116,29.7532315 128.416323,29.9882491 128.322737,30.3642773 C128.229151,30.7403055 128.182358,31.0693302 128.182358,31.2573443 C128.182358,32.0564042 128.509909,32.4324324 129.165011,32.4324324 L134.265449,32.4324324 C135.20131,32.4324324 135.762826,31.9623972 135.903205,31.0223267 L138.94475,11.9388954 C138.991543,11.6568743 138.94475,11.3748531 138.710785,11.1398355 C138.523613,10.9048179 138.242855,10.7638073 137.962097,10.7638073 L137.962097,10.7638073 L137.915304,10.8108108 Z M128.229151,25.2408931 C126.96574,26.4629847 125.421571,27.0740306 123.643436,27.0740306 C121.865302,27.0740306 121.023028,26.6980024 120.133961,25.8989424 C119.244894,25.0998825 118.776963,24.0658049 118.776963,22.7027027 C118.776963,21.3396005 119.385273,19.3654524 120.648684,18.1433608 C121.865302,16.9212691 123.409471,16.2632197 125.234399,16.2632197 C127.059326,16.2632197 127.761221,16.6862515 128.697081,17.4853114 C129.632942,18.2843713 130.054079,19.4124559 130.054079,20.8225617 C130.054079,22.5616921 129.44577,24.0658049 128.182358,25.2878966 L128.182358,25.2878966 L128.229151,25.2408931 Z" id="Shape" fill="#009CDE"></path>
            <path d="M53.5943015,10.8108108 L47.9323474,10.8108108 C47.2304523,10.8108108 46.8093152,11.6098707 46.6689362,13.2079906 C45.3119389,11.2808461 42.9722884,10.293772 39.6031918,10.293772 C36.2340951,10.293772 33.0053775,11.6098707 30.525348,14.2420682 C28.0453185,16.8742656 26.7819072,19.9764982 26.7819072,23.5487662 C26.7819072,27.1210341 27.6241814,28.7191539 29.3555227,30.4112808 C31.0400711,32.1034078 33.3329285,32.9494712 36.2340951,32.9494712 C39.1352617,32.9494712 39.0416756,32.6674501 40.5390519,32.0564042 C42.0364282,31.4923619 43.2062535,30.693302 44.0953206,29.706228 C43.9081486,30.2702703 43.8145626,30.787309 43.8145626,31.2573443 C43.8145626,32.0564042 44.1421137,32.4324324 44.7972158,32.4324324 L49.8976538,32.4324324 C50.833514,32.4324324 51.3950301,31.9623972 51.5354091,31.0223267 L54.5769547,11.9388954 C54.6237477,11.6568743 54.5769547,11.3748531 54.3429897,11.1398355 C54.1558176,10.9048179 53.8750596,10.7638073 53.5943015,10.7638073 L53.5943015,10.7638073 L53.5943015,10.8108108 Z M43.9081486,25.2408931 C42.6447374,26.4159812 41.1005681,27.027027 39.2756407,27.027027 C37.4507133,27.027027 36.7020252,26.6509988 35.812958,25.8519389 C34.9238908,25.052879 34.5027537,24.0188014 34.5027537,22.6556992 C34.5027537,21.2925969 35.1110629,19.3184489 36.3744741,18.0963572 C37.5910924,16.8742656 39.1352617,16.2162162 40.960189,16.2162162 C42.7851164,16.2162162 43.4870115,16.6392479 44.4228717,17.4383079 C45.3587319,18.2373678 45.779869,19.3654524 45.779869,20.7755582 C45.779869,22.1856639 45.1715599,24.0658049 43.9081486,25.2878966 L43.9081486,25.2878966 L43.9081486,25.2408931 Z" id="Shape" fill="#003087"></path>
            <path d="M110.026671,1.97414806 C108.108157,0.705052879 105.628128,0.0470035253 102.586582,0.0470035253 L90.7947439,0.0470035253 C89.8120907,0.0470035253 89.2505746,0.517038778 89.1569886,1.45710928 L84.3373086,31.3043478 C84.2905156,31.586369 84.3373086,31.8683901 84.5712737,32.1034078 C84.7584457,32.3384254 85.0392037,32.479436 85.3199618,32.479436 L91.403053,32.479436 C92.0113621,32.479436 92.3857062,32.1504113 92.5728782,31.5393655 L93.9298755,23.0317274 C93.9766685,22.6556992 94.1638406,22.3266745 94.4445986,22.0916569 C94.7253567,21.8566392 95.0997007,21.6686251 95.5676308,21.6216216 C96.0355609,21.5276146 96.409905,21.5276146 96.8310421,21.5276146 C97.2521792,21.5276146 97.6733162,21.5276146 98.2348324,21.6216216 C98.7963485,21.6686251 99.1238995,21.7156287 99.2642786,21.7156287 C103.522442,21.7156287 106.844746,20.5405405 109.277983,18.1903643 C111.711219,15.840188 112.927837,12.5499412 112.927837,8.3666275 C112.927837,5.49941246 111.991977,3.38425382 110.073464,2.11515864 L110.073464,2.11515864 L110.026671,1.97414806 Z M102.446203,14.0070505 C101.369964,14.7591069 99.7322087,15.0881316 97.5329372,15.0881316 L95.1464937,15.1821387 L96.409905,7.33254994 C96.503491,6.81551116 96.8310421,6.53349001 97.3925582,6.53349001 L98.7495555,6.53349001 C99.8257947,6.53349001 100.714862,6.58049354 101.369964,6.67450059 C102.025066,6.76850764 102.633375,7.09753231 103.241684,7.56756757 C103.849993,8.08460635 104.130752,8.83666275 104.130752,9.77673325 C104.130752,11.8448884 103.569235,13.2079906 102.492996,13.960047 L102.446203,14.0070505 Z" id="Shape" fill="#009CDE"></path>
        </g>
    </g>
</svg>